<?xml version="1.0" standalone="no"?>
<!DOCTYPE svg PUBLIC "-//W3C//DTD SVG 20010904//EN"
 "http://www.w3.org/TR/2001/REC-SVG-20010904/DTD/svg10.dtd">
<svg version="1.0" xmlns="http://www.w3.org/2000/svg"
 width="612.000000pt" height="438.000000pt" viewBox="0 0 612.000000 438.000000"
 preserveAspectRatio="xMidYMid meet">
<metadata>
Created by potrace 1.16, written by Peter Selinger 2001-2019
</metadata>
<g transform="translate(0.000000,438.000000) scale(0.100000,-0.100000)"
fill="#000000" stroke="none">
<path d="M2808 3478 l-3 -92 -40 -8 c-216 -44 -454 -177 -630 -353 -187 -187
-305 -407 -362 -675 -24 -118 -24 -372 0 -490 57 -269 174 -487 362 -676 253
-253 567 -384 925 -384 358 0 666 127 921 380 194 192 322 435 370 700 20 110
18 365 -4 470 -101 481 -437 857 -894 999 -93 30 -253 62 -262 54 -3 -2 36
-45 87 -96 l92 -92 -65 -65 c-68 -68 -76 -80 -48 -80 35 0 181 -51 255 -89
265 -136 452 -383 519 -686 22 -99 17 -314 -10 -417 -61 -238 -180 -420 -363
-558 -196 -148 -393 -208 -645 -197 -154 6 -250 30 -380 92 -271 131 -462 368
-535 663 -26 104 -31 321 -9 417 70 314 270 571 541 697 55 26 165 68 177 68
1 0 3 -46 3 -102 l0 -103 182 182 183 183 -175 175 c-96 96 -178 174 -182 175
-4 0 -9 -41 -10 -92z"/>
<path d="M3083 2817 c-10 -13 -29 -46 -42 -74 -21 -45 -28 -52 -60 -57 -20 -4
-57 -12 -83 -18 -46 -11 -46 -11 -99 31 -28 23 -62 44 -75 47 -30 8 -141 -67
-150 -100 -3 -14 4 -54 16 -93 l22 -68 -36 -54 c-20 -30 -40 -60 -44 -67 -4
-7 -40 -17 -81 -23 -91 -12 -104 -25 -119 -111 -14 -81 -5 -98 78 -140 46 -23
61 -36 65 -58 3 -15 12 -51 19 -80 l13 -53 -37 -47 c-49 -63 -61 -87 -53 -109
13 -34 82 -120 101 -125 10 -3 45 3 78 13 32 10 64 19 71 19 7 0 43 -20 81
-45 l69 -44 7 -70 c9 -86 22 -99 115 -114 84 -13 90 -9 132 75 16 33 35 60 42
62 7 2 37 8 67 14 30 6 62 13 70 16 10 4 38 -11 74 -39 32 -25 69 -45 81 -45
32 0 145 85 145 109 0 10 -9 48 -20 84 l-20 64 46 69 c48 72 62 80 136 83 56
2 83 33 96 110 7 41 8 70 2 81 -5 10 -38 33 -72 52 l-63 35 -15 69 c-9 38 -19
74 -22 80 -4 5 9 30 28 54 19 25 41 57 50 73 17 31 14 40 -43 119 -40 56 -58
59 -147 28 l-57 -19 -50 34 c-27 18 -58 37 -69 40 -22 7 -26 18 -35 97 -8 74
-26 93 -99 107 -82 15 -92 14 -113 -12z m100 -456 c145 -70 204 -240 134 -383
-104 -211 -405 -213 -508 -2 -99 201 51 425 273 410 32 -2 77 -14 101 -25z"/>
</g>
</svg>
