<?xml version="1.0" standalone="no"?>
<!DOCTYPE svg PUBLIC "-//W3C//DTD SVG 20010904//EN"
 "http://www.w3.org/TR/2001/REC-SVG-20010904/DTD/svg10.dtd">
<svg version="1.0" xmlns="http://www.w3.org/2000/svg"
 width="612.000000pt" height="612.000000pt" viewBox="0 0 612.000000 612.000000"
 preserveAspectRatio="xMidYMid meet">
<metadata>
Created by potrace 1.16, written by Peter Selinger 2001-2019
</metadata>
<g transform="translate(0.000000,612.000000) scale(0.100000,-0.100000)"
fill="#000000" stroke="none">
<path d="M2995 4776 c-57 -19 -2164 -1073 -2203 -1103 -42 -32 -62 -72 -62
-125 0 -92 -50 -63 1171 -674 1052 -526 1112 -554 1161 -553 49 0 112 29 868
409 463 232 809 410 800 414 -8 3 -343 77 -745 166 l-729 161 -61 -28 c-157
-71 -358 -2 -395 137 -14 53 0 99 46 150 102 113 328 113 426 1 18 -21 38 -45
43 -53 7 -11 60 -27 155 -47 80 -16 390 -84 690 -151 300 -66 621 -137 714
-157 l168 -36 111 54 c60 30 130 66 154 82 83 52 105 158 46 228 -37 44 -2208
1127 -2273 1134 -25 2 -63 -1 -85 -9z"/>
<path d="M4928 2989 l-98 -49 0 -475 0 -475 100 0 100 0 0 525 c0 289 -1 525
-2 524 -2 0 -47 -22 -100 -50z"/>
<path d="M1660 2418 c0 -361 7 -418 62 -527 146 -288 627 -511 1188 -551 387
-27 877 71 1150 230 149 87 281 213 334 319 60 120 61 127 59 500 -1 189 -4
345 -6 348 -3 2 -290 -139 -640 -313 l-635 -317 -79 -5 c-57 -3 -96 0 -138 13
-32 9 -332 153 -666 321 -335 167 -613 304 -619 304 -6 0 -10 -113 -10 -322z"/>
<path d="M4814 1892 c-22 -15 -144 -196 -144 -213 0 -15 71 -101 207 -251 54
-60 65 -55 194 93 63 72 117 140 121 150 5 13 -9 42 -49 101 -91 136 -79 128
-207 128 -61 0 -116 -4 -122 -8z"/>
</g>
</svg>
