<?xml version="1.0" standalone="no"?>
<!DOCTYPE svg PUBLIC "-//W3C//DTD SVG 20010904//EN"
 "http://www.w3.org/TR/2001/REC-SVG-20010904/DTD/svg10.dtd">
<svg version="1.0" xmlns="http://www.w3.org/2000/svg"
 width="612.000000pt" height="612.000000pt" viewBox="0 0 612.000000 612.000000"
 preserveAspectRatio="xMidYMid meet">
<metadata>
Created by potrace 1.16, written by Peter Selinger 2001-2019
</metadata>
<g transform="translate(0.000000,612.000000) scale(0.100000,-0.100000)"
fill="#000000" stroke="none">
<path d="M4135 4370 c-104 -60 -291 -258 -782 -827 -172 -199 -316 -364 -320
-366 -5 -2 -84 94 -178 215 -203 262 -208 268 -249 268 -70 -1 -187 -84 -227
-162 -33 -64 -26 -93 47 -198 88 -125 170 -244 287 -415 119 -173 168 -230
220 -256 83 -43 195 -3 265 93 114 157 704 1035 869 1293 120 188 191 309 199
341 13 52 -54 59 -131 14z"/>
<path d="M2320 4290 c-171 -30 -325 -140 -403 -288 -75 -143 -72 -109 -72
-862 0 -627 1 -679 18 -735 61 -198 216 -349 413 -400 85 -22 1361 -22 1444 0
186 49 339 188 402 365 23 64 23 73 26 523 l3 459 -35 33 c-43 41 -84 49 -136
29 -77 -31 -74 -16 -80 -504 -5 -420 -6 -437 -27 -482 -27 -60 -94 -127 -158
-158 l-50 -25 -665 0 c-658 0 -665 0 -711 21 -64 30 -125 88 -157 148 l-27 51
-3 661 c-2 650 -2 663 18 718 24 64 87 133 151 168 l44 23 520 5 c571 5 548 3
590 67 22 33 16 114 -11 144 -43 48 -52 49 -566 48 -266 -1 -503 -5 -528 -9z"/>
</g>
</svg>
