<?xml version="1.0" standalone="no"?>
<!DOCTYPE svg PUBLIC "-//W3C//DTD SVG 20010904//EN"
 "http://www.w3.org/TR/2001/REC-SVG-20010904/DTD/svg10.dtd">
<svg version="1.0" xmlns="http://www.w3.org/2000/svg"
 width="612.000000pt" height="612.000000pt" viewBox="0 0 612.000000 612.000000"
 preserveAspectRatio="xMidYMid meet">
<metadata>
Created by potrace 1.16, written by Peter Selinger 2001-2019
</metadata>
<g transform="translate(0.000000,612.000000) scale(0.100000,-0.100000)"
fill="#000000" stroke="none">
<path d="M2938 5009 c-119 -17 -253 -70 -353 -139 -58 -41 -162 -147 -205
-210 -288 -423 -134 -992 329 -1214 40 -19 95 -40 122 -47 l50 -13 -3 -56 c-3
-52 -5 -55 -30 -58 l-28 -3 0 -551 0 -550 27 -50 c57 -104 182 -152 294 -113
61 22 101 55 131 112 l27 50 3 551 3 551 -30 3 c-29 3 -30 5 -33 58 l-3 56 50
13 c126 32 275 124 373 230 168 181 247 420 218 655 -34 275 -192 508 -430
634 -165 87 -333 117 -512 91z m199 -119 c265 -33 479 -197 577 -442 35 -89
46 -152 46 -262 -1 -348 -249 -633 -602 -691 l-38 -6 0 -109 0 -110 -60 0 -60
0 0 110 0 109 -37 6 c-238 39 -431 181 -533 390 -22 44 -46 109 -54 145 -18
74 -21 223 -6 299 25 133 110 282 214 378 132 120 239 164 461 192 6 0 47 -4
92 -9z m43 -2219 l0 -479 -25 -31 c-53 -62 -137 -62 -190 0 l-25 31 0 479 0
479 120 0 120 0 0 -479z"/>
<path d="M2980 4761 c-67 -21 -137 -77 -166 -134 -22 -42 -33 -126 -22 -159
17 -49 90 -50 109 -1 5 13 9 39 9 57 0 94 148 160 237 105 63 -39 81 -116 43
-193 -11 -23 -49 -78 -84 -123 -111 -140 -146 -214 -147 -313 -1 -44 3 -57 21
-72 50 -40 100 -5 100 70 0 63 31 124 121 237 122 154 153 248 118 365 -17 59
-98 141 -155 158 -45 13 -145 15 -184 3z"/>
<path d="M2335 3454 c-108 -37 -300 -137 -405 -212 -106 -75 -271 -235 -340
-330 -109 -150 -199 -344 -242 -520 -20 -81 -22 -121 -25 -570 -5 -538 -4
-542 61 -618 19 -22 58 -53 87 -69 l54 -30 1530 0 1530 0 57 28 c67 33 121 91
142 155 24 68 23 896 0 1033 -51 299 -223 608 -452 809 -155 136 -397 277
-568 331 l-72 22 -62 -46 c-36 -27 -56 -49 -48 -51 327 -98 529 -210 718 -398
189 -188 321 -441 364 -697 13 -76 16 -178 16 -519 0 -414 -1 -425 -21 -462
-12 -21 -40 -48 -63 -61 -38 -22 -52 -24 -191 -24 l-150 0 -5 203 c-5 219 -6
222 -62 222 -52 0 -58 -24 -58 -237 l0 -193 -1070 0 -1070 0 0 193 c0 213 -6
237 -58 237 -56 0 -57 -3 -62 -222 l-5 -203 -120 -3 c-151 -4 -212 8 -252 51
-17 18 -36 42 -42 54 -18 36 -15 847 4 959 46 262 159 485 345 678 203 210
393 319 739 422 15 5 -102 94 -122 93 -6 0 -43 -11 -82 -25z"/>
</g>
</svg>
