<?xml version="1.0" standalone="no"?>
<!DOCTYPE svg PUBLIC "-//W3C//DTD SVG 20010904//EN"
 "http://www.w3.org/TR/2001/REC-SVG-20010904/DTD/svg10.dtd">
<svg version="1.0" xmlns="http://www.w3.org/2000/svg"
 width="612.000000pt" height="612.000000pt" viewBox="0 0 612.000000 612.000000"
 preserveAspectRatio="xMidYMid meet">
<metadata>
Created by potrace 1.16, written by Peter Selinger 2001-2019
</metadata>
<g transform="translate(0.000000,612.000000) scale(0.100000,-0.100000)"
fill="#000000" stroke="none">
<path d="M3026 4704 c-13 -13 -16 -46 -16 -203 0 -200 3 -211 50 -211 47 0 50
11 50 211 0 199 -5 219 -50 219 -10 0 -26 -7 -34 -16z"/>
<path d="M2279 4399 c-39 -39 -24 -57 151 -176 98 -66 175 -112 191 -112 32
-1 49 16 49 49 0 24 -22 41 -175 143 -96 65 -179 117 -185 117 -5 0 -19 -9
-31 -21z"/>
<path d="M3626 4304 c-159 -105 -176 -119 -176 -145 0 -17 8 -34 22 -43 27
-19 37 -14 241 124 151 102 166 121 128 159 -12 12 -25 21 -30 21 -5 0 -89
-52 -185 -116z"/>
<path d="M2012 3813 c-19 -7 -535 -783 -540 -812 -4 -20 110 -138 784 -812
434 -434 796 -789 804 -789 8 0 370 355 804 789 674 674 788 792 784 812 -6
33 -522 805 -543 813 -20 7 -2074 7 -2093 -1z m748 -408 c-116 -173 -212 -315
-215 -315 -3 0 -99 142 -215 315 l-210 315 425 0 425 0 -210 -315z m1192 243
c-140 -214 -356 -535 -367 -547 -11 -11 -49 40 -224 303 l-211 316 425 0 425
0 -48 -72z m-1703 -295 c111 -166 201 -305 201 -308 0 -3 -189 -5 -420 -5
-231 0 -420 3 -420 7 0 4 93 148 208 320 157 237 210 309 218 300 7 -7 102
-148 213 -314z m1021 16 c113 -170 207 -314 208 -319 2 -6 -148 -10 -417 -10
-232 0 -421 3 -421 7 0 10 414 632 420 632 3 0 97 -140 210 -310z m1240 -321
c0 -5 -189 -8 -420 -8 -231 0 -420 2 -420 5 0 5 244 374 369 559 l53 78 209
-313 c115 -173 209 -317 209 -321z m-1785 -746 c118 -354 215 -649 215 -655 0
-7 -292 281 -650 638 -357 357 -650 653 -650 658 0 4 196 6 435 5 l436 -3 214
-643z m778 631 c-2 -10 -103 -313 -223 -673 -203 -609 -219 -653 -230 -625
-15 40 -387 1149 -416 1243 l-22 72 448 0 c422 0 448 -1 443 -17z m977 9 c0
-4 -292 -300 -650 -657 -357 -357 -650 -645 -650 -639 0 5 97 300 215 654 118
355 215 646 215 647 0 2 196 3 435 3 239 0 435 -3 435 -8z"/>
</g>
</svg>
